<svg width="24" height="24" viewBox="0 0 24 24" fill="none" xmlns="http://www.w3.org/2000/svg">
<path fill-rule="evenodd" clip-rule="evenodd" d="M7.258 3.25C4.5181 3.25 2.34634 5.56173 2.51725 8.2963L3.01725 16.2963C3.06445 17.0514 3.28686 17.7579 3.64386 18.3754C4.46686 19.7989 6.00654 20.75 7.758 20.75H16.2961C18.0458 20.75 19.5866 19.8002 20.4102 18.3753C20.4311 18.3392 20.449 18.3014 20.4636 18.2622L21.5829 15.2629C21.9097 14.3872 21.7976 13.4852 21.3857 12.7591C21.4154 12.6784 21.4316 12.5911 21.4316 12.5V11.1689C21.619 8.51232 19.514 6.25 16.8466 6.25H14.5002C14.086 6.25 13.7502 5.91421 13.7502 5.5C13.7502 4.25736 12.7428 3.25 11.5002 3.25H7.258ZM15.0207 11.25C14.6881 11.25 14.4351 10.9514 14.4898 10.6233C14.6969 9.38094 13.7388 8.25 12.4793 8.25H9.29848C7.02469 8.25 5.07224 9.86697 4.64856 12.1009L4.41126 13.3522L4.35324 13.6253L4.01433 8.20273C3.89739 6.33171 5.38333 4.75 7.258 4.75H11.5002C11.9144 4.75 12.2502 5.08579 12.2502 5.5C12.2502 6.74264 13.2576 7.75 14.5002 7.75H16.8466C18.6503 7.75 20.0722 9.2855 19.9338 11.0839C19.9324 11.103 19.9316 11.1222 19.9316 11.1414V11.4717C19.5858 11.3294 19.2041 11.25 18.7979 11.25H15.0207Z" fill="#363538"/>
</svg>
