<svg width="24" height="24" viewBox="0 0 24 24" fill="none" xmlns="http://www.w3.org/2000/svg">
<path d="M14.1001 12C16.5854 12 18.6001 9.98528 18.6001 7.5C18.6001 5.01472 16.5854 3 14.1001 3C11.6148 3 9.60009 5.01472 9.60009 7.5C9.60009 9.98528 11.6148 12 14.1001 12Z" fill="#363538"/>
<path d="M14.1001 20.9999C18.0765 20.9999 21.3001 19.1867 21.3001 16.9499C21.3001 14.7131 18.0765 12.8999 14.1001 12.8999C10.1236 12.8999 6.90009 14.7131 6.90009 16.9499C6.90009 19.1867 10.1236 20.9999 14.1001 20.9999Z" fill="#363538"/>
<path d="M9.1001 4.53223C9.1001 4.24587 8.88645 4 8.6001 4C6.39096 4 4.6001 5.79086 4.6001 8C4.6001 10.2091 6.39096 12 8.6001 12C8.88645 12 9.1001 11.7541 9.1001 11.4678V10.9533C9.1001 10.6932 8.86021 10.5 8.6001 10.5C7.21939 10.5 6.1001 9.38071 6.1001 8C6.1001 6.61929 7.21939 5.5 8.6001 5.5C8.86021 5.5 9.1001 5.30679 9.1001 5.04667V4.53223Z" fill="#363538"/>
<path d="M5.67824 13.5237C6.14346 13.3683 6.6001 13.7344 6.6001 14.2249C6.6001 14.5715 6.36549 14.8705 6.03865 14.9859C5.73496 15.0932 5.459 15.2145 5.21505 15.3459C4.23618 15.873 4.1001 16.3498 4.1001 16.5C4.1001 16.6503 4.23618 17.1271 5.21505 17.6542C5.459 17.7856 5.73496 17.9068 6.03865 18.0141C6.36549 18.1296 6.6001 18.4286 6.6001 18.7752C6.6001 19.2657 6.14346 19.6318 5.67824 19.4763C3.83055 18.8591 2.6001 17.757 2.6001 16.5C2.6001 15.2431 3.83055 14.141 5.67824 13.5237Z" fill="#363538"/>
</svg>
